<?xml version="1.0" encoding="UTF-8"?>
<svg xmlns="http://www.w3.org/2000/svg" width="54" height="52" viewBox="0 0 54 52">
    <path fill="#1C58B8" fill-rule="evenodd" stroke="#1C58B8" stroke-width=".4" d="M18.149 18.17L3.233 19.574c-.212.018-.406.098-.565.231-.16.116-.274.294-.336.507-.08.214-.08.427-.027.623.053.187.168.365.327.516l11.246 9.964c.319.284.548.64.681 1.032.115.382.141.8.053 1.218v.027l-3.28 14.705c-.053.214-.035.427.026.614.071.187.204.356.38.49.177.133.372.195.575.204.195.018.407-.036.593-.151l12.89-7.669c.38-.222.787-.338 1.194-.338.415.01.822.116 1.193.338l12.882 7.687c.185.106.398.16.592.15.204-.008.398-.07.584-.213.168-.124.3-.293.371-.48.07-.187.088-.4.035-.623l-3.262-14.705c-.088-.427-.07-.854.053-1.245.124-.392.354-.748.68-1.032l11.247-9.955c.159-.151.274-.33.327-.516.062-.187.053-.41-.018-.614v-.009c-.07-.204-.185-.382-.345-.507-.15-.124-.344-.204-.557-.222h-.017l-14.906-1.424c-.434-.044-.832-.195-1.159-.436-.327-.24-.592-.569-.769-.97L27.98 2.93c-.08-.204-.212-.364-.39-.48-.15-.107-.362-.169-.583-.169-.203 0-.397.053-.557.151l-.026.018c-.168.116-.31.276-.39.48l-5.95 13.834c-.176.4-.441.73-.768.978-.328.24-.725.392-1.159.427h-.008zm-15.022.133l14.907-1.406c.203-.017.38-.089.53-.195.15-.107.274-.258.354-.445l5.95-13.834c.185-.444.477-.8.849-1.04.017-.01.035-.018.053-.027.362-.231.786-.356 1.237-.356.478 0 .911.133 1.282.383.38.249.681.604.867 1.04l5.941 13.843c.08.187.195.338.345.444.15.107.327.178.54.196l14.897 1.424h.026c.469.044.884.222 1.229.498.336.276.601.658.751 1.112.142.453.15.916.036 1.352-.115.427-.363.827-.707 1.139l-11.255 9.954c-.15.134-.257.303-.319.472-.053.178-.061.374-.017.57l3.262 14.713c.106.463.08.926-.088 1.344-.15.418-.433.791-.814 1.067-.38.276-.822.427-1.273.445-.442.027-.893-.08-1.29-.33L27.537 42.99c-.177-.107-.363-.16-.548-.16h0c-.186 0-.372.053-.548.16l-12.89 7.668c-.399.24-.85.347-1.3.33-.443-.019-.885-.179-1.265-.446-.38-.284-.663-.658-.813-1.076-.16-.418-.195-.88-.089-1.352l3.28-14.697.01-.017c.035-.196.026-.383-.027-.552-.062-.178-.168-.338-.319-.472L1.792 22.413c-.353-.32-.592-.712-.716-1.148-.115-.436-.097-.898.036-1.352.15-.445.415-.827.769-1.112.345-.276.769-.454 1.246-.498h0z"/>
</svg>
