<?xml version="1.0" encoding="UTF-8"?>
<svg xmlns="http://www.w3.org/2000/svg" width="58" height="58" viewBox="0 0 58 58">
    <path fill="#1C58B8" fill-rule="evenodd" stroke="#1C58B8" stroke-width=".4" d="M27.216 25.04L17.112 38.107v.02c-.182.229-.249.497-.21.764.028.259.162.507.382.68l.01.01 1.818 1.405c.23.173.507.23.765.201.268-.028.517-.172.689-.392l8.573-11.097c.124-.162.325-.268.545-.268l12.62-.019 6.315-11.096c.114-.21.325-.345.574-.354.382-.01.698.287.717.67l.086 2.716 4.392-.153V4.33l-14.83 7.969 1.933 3.95 2.545-1.243c.2-.096.44-.105.64.019.326.182.45.603.269.928l-4.928 8.695c-.115.23-.344.383-.612.383l-12.19.01zM16.02 37.284h0c-.401.526-.564 1.167-.488 1.78.087.612.393 1.195.919 1.597l1.818 1.406c.526.412 1.177.565 1.78.488.612-.076 1.195-.392 1.607-.918l8.362-10.829 12.649-.02c.258.01.497-.123.631-.353l5.32-9.337.038.986c.01.373.325.679.708.66l5.683-.201h.038c.383 0 .69-.306.69-.689V3.181c0-.115-.03-.23-.087-.325-.182-.335-.593-.46-.937-.287l-16.428 8.83h0c-.326.181-.46.573-.297.908l2.536 5.156c.162.345.574.488.918.326l1.167-.574-3.645 6.438-12.103.019c-.22-.01-.43.086-.574.258L16.02 37.284zm40.29 10.274c.383 0 .689.306.689.68 0 .382-.306.698-.689.698H10.443v7.375c0 .383-.306.689-.689.689-.382 0-.688-.306-.688-.689v-7.375H1.689c-.383 0-.689-.316-.689-.699 0-.373.306-.679.689-.679h7.377V1.698c0-.382.306-.698.688-.698.383 0 .69.316.69.698v45.86H56.31z"/>
</svg>
