<?xml version="1.0" encoding="UTF-8"?>
<svg xmlns="http://www.w3.org/2000/svg" width="60" height="43" viewBox="0 0 60 43">
    <path fill="#1C58B8" fill-rule="evenodd" stroke="#1C58B8" stroke-width=".8" d="M4.679 38.34c1.572 1.554 3.75 2.525 6.155 2.525l32.953.016c2.405 0 4.583-.964 6.163-2.526 1.572-1.554 2.555-3.707 2.555-6.085 0-2.207-.841-4.228-2.225-5.751-1.391-1.539-3.34-2.58-5.534-2.814-.22-.015-.425-.155-.495-.38-.598-1.71-1.722-3.195-3.184-4.228-1.423-1.003-3.168-1.601-5.055-1.601-.424 0-.84.03-1.257.093-.425.062-.834.148-1.227.257-.228.07-.48-.008-.62-.21-1.164-1.625-2.713-2.97-4.52-3.894-1.746-.894-3.719-1.399-5.81-1.399-3.2 0-6.123 1.174-8.356 3.117-2.248 1.95-3.789 4.67-4.198 7.756-.015.256-.212.474-.487.513-2.107.31-3.97 1.375-5.306 2.906-1.313 1.508-2.107 3.459-2.107 5.612 0 2.378.975 4.53 2.555 6.093h0zm39.289-25.53c2.075 1.189 3.78 3.023 4.763 5.315l2.532-.808c-1.203-2.922-3.35-5.27-5.975-6.77-2.633-1.507-5.754-2.16-8.914-1.74l.55 2.572c2.5-.303 4.96.241 7.044 1.43h0zm3.907 6.21h.007c.095.279.41.427.7.341l3.593-1.166.015-.008c.291-.1.448-.411.338-.715-1.242-3.427-3.663-6.17-6.674-7.888-3.01-1.725-6.61-2.425-10.227-1.787h-.047c-.306.07-.503.365-.44.668l.778 3.637c.055.303.346.505.653.459 2.42-.404 4.818.07 6.823 1.22 2.012 1.142 3.632 2.961 4.48 5.238h0zm10.722-2.496c.299-.077.472-.388.377-.691v-.008c-1.73-5.2-5.306-9.357-9.802-11.93-4.497-2.564-9.92-3.56-15.345-2.44-.306.07-.495.365-.432.668v.008l.849 3.645c.07.295.377.482.676.412h.016c4.158-.832 8.324-.07 11.783 1.912 3.467 1.974 6.218 5.168 7.57 9.163.094.287.409.45.7.357l3.608-1.096zm-3.42-.124l2.532-.77c-1.698-4.67-4.992-8.416-9.103-10.763-4.112-2.347-9.033-3.303-13.977-2.425l.597 2.557c4.269-.73 8.514.109 12.059 2.13 3.545 2.028 6.39 5.245 7.892 9.271h0zM10.834 41.984c-2.72 0-5.172-1.095-6.957-2.852C2.093 37.368 1 34.936 1 32.247c0-2.425.896-4.64 2.374-6.35h0c1.415-1.624 3.364-2.774 5.581-3.202.52-3.202 2.162-6.03 4.52-8.082 2.43-2.107 5.613-3.381 9.103-3.381 2.28 0 4.434.544 6.328 1.515 1.84.948 3.451 2.293 4.685 3.933.33-.086.668-.156 1.007-.202.448-.062.927-.094 1.414-.094 2.13 0 4.104.669 5.708 1.803 1.564 1.112 2.782 2.65 3.482 4.446 2.335.326 4.41 1.477 5.92 3.14 1.563 1.717 2.515 3.994 2.515 6.497h0c0 2.689-1.109 5.121-2.893 6.878C48.967 40.912 46.507 42 43.787 42l-32.953-.016z"/>
</svg>
