<?xml version="1.0" encoding="UTF-8"?>
<svg xmlns="http://www.w3.org/2000/svg" width="30" height="30" viewBox="0 0 30 30">
    <g fill="none" fill-rule="evenodd">
        <g fill="#FFF" fill-rule="nonzero">
            <g>
                <g>
                    <path d="M14.531 29.062c8.026 0 14.531-6.505 14.531-14.53C29.062 6.505 22.557 0 14.532 0 6.505 0 0 6.506 0 14.531c0 8.026 6.506 14.531 14.531 14.531zm0-1.875c-6.953 0-12.656-5.628-12.656-12.656 0-6.953 5.628-12.656 12.656-12.656 6.953 0 12.656 5.628 12.656 12.656 0 6.953-5.628 12.656-12.656 12.656zm-2.276-5.62l10.575-10.49c.276-.274.277-.72.004-.995l-.495-.5c-.274-.275-.719-.276-.995-.003l-9.576 9.5-4.042-4.074c-.273-.276-.719-.278-.994-.004l-.5.495c-.275.273-.277.718-.003.994l5.032 5.073c.273.275.718.277.994.004z" transform="translate(-165 -184) translate(0 60) translate(15 124) translate(150.397)"/>
                </g>
            </g>
        </g>
    </g>
</svg>
