<?xml version="1.0" encoding="UTF-8"?>
<svg xmlns="http://www.w3.org/2000/svg" width="62" height="40" viewBox="0 0 62 40">
    <g fill="none" fill-rule="evenodd" stroke="#1C58B8">
        <path fill="#1C58B8" stroke-width=".4" d="M7.966 30.631h44.06V3.596H7.966v27.035zm-.534-28.09c-.296 0-.541.235-.541.528v28.09c0 .285.245.527.541.527h45.136c.296 0 .534-.242.534-.527V3.069c0-.293-.238-.527-.534-.527H7.432zm13.56 33.481c-.29 0-.527-.234-.527-.527 0-.293.237-.527.526-.527h17.654c.297 0 .534.234.534.527 0 .293-.237.527-.534.527H20.991zm32.94-34.96H6.06c-.215 0-.415.088-.564.227-.148.14-.23.344-.23.557v31.32h49.475V1.846c0-.213-.096-.41-.245-.557h0c-.14-.139-.341-.227-.563-.227h0zM6.06 0h47.873c.519 0 .986.205 1.32.542h.007c.341.337.55.798.55 1.304v31.32h2.32c.498 0 .95.198 1.291.512.008.015.015.022.03.037.334.33.549.791.549 1.304v1.135c0 .506-.215.967-.549 1.304-.334.337-.808.542-1.32.542H1.869c-.519 0-.979-.205-1.32-.542C.208 37.121 0 36.66 0 36.154V35.02c0-.513.208-.974.549-1.304.341-.337.808-.55 1.32-.55h2.322V1.846c0-.505.215-.966.549-1.303C5.08.205 5.556 0 6.06 0h0zM1.87 36.938h56.26c.223 0 .416-.08.565-.227.14-.147.237-.344.237-.557V35.02c0-.22-.097-.418-.237-.557l-.023-.022c-.14-.132-.334-.212-.541-.212H1.869c-.222 0-.423.088-.564.227-.148.146-.237.344-.237.564v1.135c0 .213.09.418.237.557.141.146.342.227.564.227h0z" transform="translate(1 1)"/>
        <path stroke-width="1.5" d="M14 8H46V14H14zM34 18H46V27H34z" transform="translate(1 1)"/>
    </g>
</svg>
