<?xml version="1.0" encoding="UTF-8"?>
<svg xmlns="http://www.w3.org/2000/svg" width="56" height="56" viewBox="0 0 56 56">
    <path fill="#1C58B8" fill-rule="evenodd" stroke="#1C58B8" stroke-width=".4" d="M41.671 36.534c-.713.987-1.499 1.92-2.358 2.779-.86.86-1.792 1.645-2.78 2.358l11.245 11.245h0c.512.512 1.188.768 1.865.768.667 0 1.353-.256 1.856-.768l1.408-1.417.009.009c.512-.512.768-1.189.768-1.865 0-.667-.247-1.326-.74-1.838l-.037-.027L41.67 36.534zm-6.554 4.516h.009v-.01l.027-.018c1.161-.768 2.24-1.654 3.227-2.642l.028-.018c.228-.238.448-.475.676-.713.156-.183.311-.356.476-.54l.018-.036.01-.009c3.107-3.684 4.972-8.438 4.972-13.621 0-5.833-2.35-11.116-6.17-14.938-3.83-3.82-9.106-6.189-14.947-6.189-5.833 0-11.116 2.368-14.938 6.19-3.82 3.82-6.189 9.104-6.189 14.937 0 5.832 2.368 11.116 6.19 14.937 3.82 3.822 9.104 6.18 14.937 6.18 4.324 0 8.328-1.289 11.674-3.51h0zM29.86 7.93c-1.983-.823-4.15-1.271-6.417-1.271-2.267 0-4.434.448-6.418 1.27-2.056.85-3.903 2.103-5.448 3.648-1.545 1.536-2.797 3.392-3.638 5.448-.823 1.984-1.28 4.15-1.28 6.418 0 2.267.457 4.434 1.28 6.417.84 2.057 2.093 3.904 3.638 5.449s3.392 2.788 5.448 3.647c1.984.814 4.15 1.271 6.418 1.271 2.276 0 4.434-.457 6.417-1.27 2.057-.86 3.904-2.103 5.458-3.648 1.545-1.545 2.779-3.392 3.638-5.449.814-1.983 1.271-4.15 1.271-6.417 0-2.276-.457-4.434-1.27-6.418-.86-2.056-2.094-3.912-3.64-5.448-1.544-1.545-3.39-2.797-5.457-3.648h0zm4.516 4.58c-1.426-1.436-3.126-2.588-5.018-3.365-1.82-.75-3.813-1.17-5.915-1.17-2.103 0-4.096.42-5.924 1.17-1.883.777-3.583 1.93-5.01 3.364-1.435 1.427-2.587 3.127-3.364 5.01-.759 1.828-1.17 3.821-1.17 5.924 0 2.102.411 4.095 1.17 5.915.786 1.892 1.93 3.592 3.364 5.018v.01-.01c1.427 1.426 3.118 2.578 5.01 3.364 1.828.75 3.821 1.161 5.924 1.161 2.102 0 4.095-.41 5.915-1.16 1.892-.787 3.601-1.939 5.018-3.356h.01l-.01-.009c1.426-1.426 2.578-3.126 3.364-5.018.75-1.82 1.17-3.822 1.17-5.915 0-2.103-.42-4.096-1.17-5.924-.786-1.883-1.938-3.583-3.364-5.01h0zm8.045 22.908l11.427 11.428.037.036c.74.768 1.115 1.765 1.115 2.761 0 1.006-.384 2.02-1.152 2.788l-1.408 1.417C51.672 54.616 50.65 55 49.643 55c-1.006 0-2.03-.384-2.797-1.152L35.418 42.421c-3.455 2.194-7.569 3.465-11.975 3.465-6.198 0-11.802-2.514-15.861-6.573C3.514 35.253 1 29.64 1 23.443c0-6.198 2.514-11.811 6.582-15.87C11.641 3.514 17.245 1 23.442 1c6.199 0 11.812 2.514 15.87 6.573 4.069 4.059 6.574 9.672 6.574 15.87 0 4.406-1.271 8.51-3.465 11.975h0z"/>
</svg>
