<?xml version="1.0" encoding="UTF-8"?>
<svg xmlns="http://www.w3.org/2000/svg" width="58" height="51" viewBox="0 0 58 51">
    <path fill="#1C58B8" fill-rule="evenodd" stroke="#1C58B8" stroke-width=".4" d="M47.44 28.797l8.783-.017-1.218-2.734-10.465.008.571 1.268c.2.456.506.812.904 1.06.406.266.894.415 1.425.415h0zm8.377-3.348l1.615 3.63c.133.29.058.654-.165.82-.092.066-.183.091-.274.083l-7.507.008c-1.06 5.626-4.043 10.58-8.244 14.135-4.259 3.605-9.769 5.784-15.776 5.784-6.761 0-12.868-2.743-17.292-7.159-4.433-4.433-7.167-10.548-7.167-17.284 0-6.761 2.734-12.876 7.158-17.3 4.425-4.425 10.54-7.16 17.301-7.16 6.007 0 11.517 2.163 15.776 5.776 4.2 3.554 7.184 8.5 8.244 14.135l7.515-.008c.083 0 .174.025.257.083.224.157.299.522.174.812l-1.615 3.645zm-24.907.605h-5.817c-.323 0-.605-.265-.605-.588 0-.331.282-.605.605-.605l5.817-.008c-.042-.05-.067-.116-.075-.199-.19-1.317-.862-2.494-1.83-3.323-.954-.82-2.188-1.317-3.547-1.317-1.508 0-2.867.613-3.853 1.59-.978.987-1.59 2.346-1.59 3.854 0 1.5.612 2.858 1.59 3.844v.009c.986.977 2.345 1.582 3.853 1.582 1.359 0 2.593-.497 3.538-1.309.977-.837 1.649-1.997 1.84-3.33.007-.067.032-.133.074-.2h0zm8.55-.008l-7.515.008c.067.116.092.24.075.381-.249 1.608-1.06 3.033-2.237 4.044-1.16 1.002-2.676 1.607-4.325 1.607-1.84 0-3.489-.737-4.698-1.939-1.193-1.193-1.94-2.866-1.94-4.69 0-1.839.747-3.488 1.94-4.689 1.21-1.201 2.858-1.947 4.698-1.947 1.649 0 3.165.605 4.325 1.607 1.185 1.02 1.997 2.445 2.237 4.052.017.14-.008.273-.075.373h7.507c-.041-.066-.066-.158-.074-.249-.216-3.662-1.848-6.951-4.359-9.321-2.502-2.345-5.866-3.787-9.561-3.787-3.853 0-7.341 1.566-9.869 4.085-2.527 2.527-4.093 6.024-4.093 9.877 0 3.853 1.566 7.333 4.093 9.86 2.528 2.527 6.016 4.085 9.869 4.085 3.695 0 7.06-1.442 9.553-3.787 2.52-2.361 4.151-5.643 4.367-9.313.008-.091.041-.174.083-.257h0zm4.01 0l.83 1.873c.29.662.737 1.184 1.292 1.54.539.349 1.168.54 1.848.54h.837c-1.044 5.252-3.862 9.884-7.806 13.215-4.051 3.43-9.288 5.493-15.005 5.493-6.438 0-12.246-2.601-16.464-6.81-4.2-4.201-6.802-10.018-6.802-16.43C2.2 19.027 4.8 13.22 9.002 9.001c4.218-4.2 10.034-6.81 16.464-6.81 5.717 0 10.954 2.07 15.005 5.501 3.944 3.331 6.762 7.963 7.806 13.232h-.854c-.67 0-1.3.191-1.84.53-.546.357-1.002.887-1.292 1.542l-.82 1.856h-2.966c.05-.083.074-.199.066-.323-.232-3.977-2.005-7.549-4.731-10.109-2.726-2.552-6.372-4.118-10.382-4.118-4.185 0-7.971 1.699-10.714 4.441-2.742 2.743-4.433 6.53-4.433 10.714s1.69 7.97 4.433 10.713c2.743 2.734 6.53 4.433 10.714 4.433 4.01 0 7.656-1.566 10.373-4.11 2.726-2.568 4.508-6.14 4.74-10.117.008-.124-.017-.232-.075-.33h2.975zm11.526-1.193l1.227-2.75-8.8.007c-.522.009-1.01.158-1.417.415-.39.256-.704.613-.895 1.06l-.571 1.268h10.456z"/>
</svg>
