<?xml version="1.0" encoding="UTF-8"?>
<svg xmlns="http://www.w3.org/2000/svg" width="53" height="51" viewBox="0 0 53 51">
    <path fill="#1C58B8" fill-rule="evenodd" stroke="#1C58B8" stroke-width=".6" d="M16.013 41.795c-.416-.421-.993-.688-1.63-.688-.645 0-1.222.267-1.638.688-.416.42-.67 1.014-.67 1.658 0 .644.254 1.229.67 1.65.416.42.993.678 1.639.678.62 0 1.18-.24 1.604-.644l.025-.034c.416-.421.671-1.006.671-1.65 0-.644-.255-1.237-.67-1.658h0zm7.82-23.972H4.348c-.68 0-1.282.284-1.732.73-.441.447-.721 1.074-.721 1.762v25.973c0 .688.28 1.306.721 1.762.45.446 1.053.721 1.732.721h19.483V17.823zm9.66-14.245c.212-.43.518-.765.892-.988.365-.224.806-.353 1.273-.353h1.222c.374 0 .714.078 1.02.215h.008-.009c.306.146.586.36.832.644.238.275.416.585.501.911.102.335.127.688.076 1.057l-2.003 14.7c-.051.345.178.654.51.697.033.008.059.008.093.008h10.764c.671 0 1.282.275 1.724.73h.008c.442.448.713 1.066.713 1.753v12.201c0 3.42-1.375 6.53-3.608 8.781-2.224 2.251-5.297 3.643-8.676 3.643H25.055v-27.58l8.438-16.42zm-8.438 13.738v-.103c0-.335-.28-.61-.612-.61H4.35c-1.01 0-1.936.412-2.598 1.083-.67.678-1.078 1.606-1.078 2.629v25.973c0 1.023.408 1.95 1.078 2.62C2.413 49.58 3.34 50 4.35 50h20.094c.332 0 .612-.275.612-.61v-.567h13.778c3.718 0 7.089-1.538 9.55-4.013 2.446-2.483 3.957-5.894 3.957-9.657v-12.2c0-1.023-.408-1.95-1.07-2.621l-.008-.009v-.008c-.671-.67-1.588-1.083-2.59-1.083H38.604l1.918-14.005c.077-.55.034-1.074-.11-1.563-.153-.507-.399-.971-.764-1.384-.357-.42-.781-.739-1.24-.954v.01C37.934 1.12 37.425 1 36.88 1h-1.222c-.696 0-1.35.189-1.902.533-.568.343-1.027.85-1.35 1.478l-7.351 14.305zM14.384 39.87c.976 0 1.85.404 2.495 1.048.637.653 1.036 1.547 1.036 2.535 0 .988-.399 1.882-1.036 2.526l-.042.034c-.637.628-1.503 1.014-2.453 1.014-.985 0-1.86-.404-2.505-1.048-.637-.644-1.027-1.538-1.027-2.526 0-.988.39-1.882 1.027-2.535.645-.644 1.52-1.048 2.505-1.048h0z"/>
</svg>
