<svg xmlns="http://www.w3.org/2000/svg" xmlns:xlink="http://www.w3.org/1999/xlink" width="470" height="121" viewBox="0 0 470 121">
    <defs>
        <path id="prefix__a" d="M0 0H37.116V18.439H0z"/>
        <path id="prefix__c" d="M0 0H37.116V18.439H0z"/>
    </defs>
    <g fill="none" fill-rule="evenodd">
        <g fill="#4F7BA3">
            <path d="M30.928.882L30.928 20.208 21.071 20.208 21.071.882.001.882.001 58.135 21.071 58.135 21.071 36.744 30.928 36.744 30.928 58.135 52.004 58.135 52.004.882zM90.875.882L90.875 58.135 133.448 58.135 133.448 43.264 112.012 43.264 112.012 36.502 131.277 36.502 131.277 21.794 112.012 21.794 112.012 15.579 132.755 15.579 132.755.882zM182.354.882L163.85 58.231h21.236l2.064-9.17h16.264l1.939 9.17h23.084L210.794.882h-28.44zm13.225 11.603l4.787 22.61h-9.935l5.148-22.61zM259.044 58.136h21.079V37.39c.68-.065 1.39-.065 1.93-.065 5.059 0 5.756 2.44 6.603 8.616l.548 4.248c.319 2.56.925 5.172 1.631 7.947h21.367c-.93-4.235-1.627-7.64-1.947-10.19l-.7-6.116c-1.003-8.253-2.803-11.76-10.327-13.054 7.312-1.994 11.027-6.43 11.027-13.348 0-11.444-7.217-14.542-22.606-14.542h-28.605v57.25zm21.079-33.632v-10.81c.9-.092 1.704-.092 2.397-.092 4.74 0 6.831 1.52 6.831 5.09 0 3.655-2.635 5.862-7.686 5.862-.466 0-1.023 0-1.542-.05zM363.058 39.765v.46c0 3.915 1.702 5.717 5.343 5.717 3.288 0 5.224-1.652 5.224-4.111 0-1.841-.784-3.257-2.196-3.963-2.868-1.442-7.918-2.253-14.511-4.4-9.021-2.938-13.225-7.456-13.225-15.484C343.693 6.77 352.562 0 368.88 0c14.83 0 22.672 5.64 22.672 15.74v1.196h-18.56c-.237-3.427-1.775-5.085-4.894-5.085-2.866 0-4.657 1.658-4.657 3.815 0 4.002 3.888 3.837 10.955 5.826 12.996 3.542 19.197 7.206 19.197 17.602 0 12.126-9.474 19.993-25.655 19.993-16.394 0-25.1-6.337-25.1-17.256 0-.632 0-1.32.09-2.066h20.13zM468.832 16.147L455.377 16.147 455.377 58.135 433.792 58.135 433.792 16.147 420.253 16.147 420.253.884 468.832.884z"/>
        </g>
        <g>
            <path fill="#000" fill-rule="nonzero" d="M52.54 36.191l3.875-9.628h14.152l3.921 9.628h2.48L64.662 6.323H62.5L50.196 36.19h2.343zm17.216-11.643h-12.53l6.265-15.494 6.265 15.494zm19.115 11.643V9.905l19.29 26.286h2.253V6.323h-2.118v26.644L89.006 6.323h-2.254V36.19h2.119zm43.677 0V22.488l10.366-16.165h-2.524l-8.878 14.06-8.88-14.06h-2.613l10.366 16.165v13.703h2.163zm27.543.717c1.442 0 2.794-.194 4.056-.582 1.262-.388 2.351-.94 3.268-1.657.916-.717 1.645-1.59 2.186-2.62.54-1.03.81-2.187.81-3.47 0-1.493-.262-2.747-.788-3.762-.526-1.015-1.202-1.858-2.028-2.53-.826-.672-1.765-1.21-2.817-1.612-1.051-.403-2.103-.739-3.155-1.008-1.021-.268-2.035-.552-3.042-.85-1.006-.3-1.915-.68-2.727-1.142-.81-.463-1.464-1.045-1.96-1.747-.496-.701-.744-1.59-.744-2.664 0-.717.135-1.41.406-2.083.27-.671.69-1.276 1.262-1.813.57-.538 1.3-.97 2.186-1.299.886-.328 1.945-.492 3.177-.492 1.082 0 2.036.111 2.862.335.826.224 1.54.508 2.14.851.602.344 1.113.717 1.533 1.12.42.403.766.783 1.037 1.142l1.532-1.299c-.33-.448-.744-.91-1.24-1.388-.495-.478-1.111-.918-1.847-1.321-.736-.403-1.593-.74-2.57-1.008-.976-.268-2.095-.403-3.357-.403-1.472 0-2.787.202-3.943.605-1.157.403-2.134.948-2.93 1.634-.796.687-1.405 1.493-1.825 2.418-.42.926-.631 1.896-.631 2.911 0 1.493.278 2.71.834 3.65.555.94 1.284 1.716 2.185 2.328.902.612 1.923 1.105 3.065 1.478s2.284.71 3.425 1.008c.932.268 1.856.567 2.772.895.917.329 1.735.754 2.457 1.276.72.523 1.3 1.172 1.735 1.948.435.777.653 1.717.653 2.822 0 1.044-.195 1.962-.586 2.754-.39.79-.939 1.447-1.645 1.97-.706.522-1.547.918-2.524 1.187-.976.268-2.05.403-3.222.403-2.043 0-3.778-.388-5.206-1.165-1.427-.776-2.651-1.776-3.673-3l-1.577 1.523c.42.597.969 1.171 1.645 1.724.676.552 1.457 1.045 2.343 1.477.887.433 1.87.784 2.952 1.053 1.082.268 2.254.403 3.516.403zm34.889 0c1.773 0 3.305-.24 4.597-.717 1.292-.477 2.381-1.037 3.268-1.679.886-.642 1.577-1.276 2.073-1.903s.834-1.09 1.014-1.388l-1.623-1.12c-.18.239-.488.62-.924 1.142-.435.522-1.021 1.052-1.757 1.59-.736.537-1.638 1.015-2.704 1.433-1.067.418-2.307.627-3.719.627-1.953 0-3.695-.351-5.228-1.053-1.532-.701-2.824-1.672-3.876-2.91-1.051-1.24-1.863-2.687-2.434-4.344-.57-1.657-.856-3.44-.856-5.351s.278-3.695.834-5.352c.556-1.657 1.36-3.097 2.411-4.321 1.052-1.224 2.336-2.187 3.854-2.888 1.517-.702 3.237-1.053 5.16-1.053 1.532 0 2.84.21 3.921.627 1.082.418 1.99.896 2.727 1.433.736.538 1.307 1.067 1.712 1.59.406.522.7.903.88 1.142l1.622-1.12c-.18-.298-.518-.76-1.014-1.388-.496-.627-1.187-1.261-2.073-1.903-.887-.642-1.976-1.202-3.268-1.68-1.292-.477-2.824-.716-4.597-.716-2.163 0-4.139.403-5.927 1.21-1.788.805-3.32 1.917-4.597 3.335-1.277 1.418-2.26 3.075-2.952 4.971-.691 1.896-1.037 3.933-1.037 6.113 0 2.239.346 4.313 1.037 6.224.691 1.91 1.675 3.568 2.952 4.97 1.277 1.404 2.81 2.501 4.597 3.292 1.788.791 3.764 1.187 5.927 1.187zm24.298-.717V23.25h8.923l6.986 12.941h2.479l-7.166-13.21c2.193-.507 3.793-1.515 4.8-3.023 1.006-1.507 1.51-3.231 1.51-5.172 0-1.224-.188-2.35-.564-3.38-.375-1.03-.984-1.926-1.825-2.688-.841-.76-1.938-1.35-3.29-1.768-1.352-.418-3.005-.627-4.958-.627h-9.059V36.19h2.164zm7.797-14.956h-7.797V8.338h7.526c2.524 0 4.44.537 5.747 1.612 1.307 1.075 1.96 2.687 1.96 4.836 0 4.3-2.479 6.449-7.436 6.449zm41.108 14.956v-2.015h-17.036V21.638h12.394v-2.016h-12.394V8.338h15.864V6.323h-18.027V36.19h19.2zm30.112 0v-2.015h-17.037V21.638h12.395v-2.016h-12.395V8.338h15.865V6.323h-18.028V36.19h19.2zm13.03 0V9.905l19.29 26.286h2.253V6.323h-2.118v26.644L311.46 6.323h-2.253V36.19h2.118z" transform="translate(53 72.955)"/>
            <g>
                <g transform="translate(53 72.955) translate(0 .954) translate(0 19.433)">
                    <mask id="prefix__b" fill="#fff">
                        <use xlink:href="#prefix__a"/>
                    </mask>
                    <path fill="#4F7BA3" d="M18.558-18.439c10.25 0 18.558 8.255 18.558 18.439s-8.308 18.439-18.558 18.439S0 10.184 0 0s8.309-18.439 18.558-18.439zm0 2.634C9.773-15.805 2.651-8.729 2.651 0s7.122 15.805 15.907 15.805S34.465 8.729 34.465 0s-7.122-15.805-15.907-15.805z" mask="url(#prefix__b)"/>
                </g>
                <g transform="translate(53 72.955) translate(0 .954) matrix(1 0 0 -1 0 19.433)">
                    <mask id="prefix__d" fill="#fff">
                        <use xlink:href="#prefix__c"/>
                    </mask>
                    <path fill="#4F7BA3" fill-opacity=".5" d="M18.558-18.439c10.25 0 18.558 8.255 18.558 18.439s-8.308 18.439-18.558 18.439S0 10.184 0 0s8.309-18.439 18.558-18.439zm0 2.634C9.773-15.805 2.651-8.729 2.651 0s7.122 15.805 15.907 15.805S34.465 8.729 34.465 0s-7.122-15.805-15.907-15.805z" mask="url(#prefix__d)"/>
                </g>
                <path fill="#4F7BA3" d="M21.209 10.154L31.746 28.712 10.673 28.712z" transform="translate(53 72.955) translate(0 .954) rotate(90 21.21 19.433)"/>
            </g>
        </g>
    </g>
</svg>
